<?xml version="1.0" encoding="UTF-8"?>
<svg version="1.1" xmlns="http://www.w3.org/2000/svg" width="1024" height="1024">
<path d="M0 0 C337.92 0 675.84 0 1024 0 C1024 337.92 1024 675.84 1024 1024 C686.08 1024 348.16 1024 0 1024 C0 686.08 0 348.16 0 0 Z " fill="#17100D" transform="translate(0,0)"/>
<path d="M0 0 C8.08419013 4.76173595 12.67747545 11.53832204 15.1875 20.4375 C16.27310048 29.3394239 14.85188178 33.73673187 9.5 41 C7.47167296 43.36638154 5.40211191 45.65537666 3.234375 47.89453125 C-0.05769157 51.89098143 -0.90569059 55.72556162 -0.75 60.8828125 C0.01085879 67.32633539 2.46579103 71.86076152 7.5 76 C8.04269531 76.45503906 8.58539062 76.91007812 9.14453125 77.37890625 C18.30688194 84.14940118 32.01275653 82.16614402 42.875 82.203125 C43.85880646 82.20736607 43.85880646 82.20736607 44.86248779 82.21169281 C48.32694882 82.22652364 51.79136986 82.23585686 55.25585938 82.24023438 C58.78889477 82.2457274 62.32154656 82.26981952 65.85446167 82.29820633 C68.61548892 82.31701126 71.37642639 82.32204746 74.13751221 82.32357025 C76.06095891 82.32797824 77.98435717 82.34651576 79.90771484 82.36553955 C89.91036417 82.34048922 101.67225413 81.98150308 109.5 75 C111.30852999 72.05253417 111.77301336 69.81549786 111.75 66.375 C111.75515625 65.59898437 111.7603125 64.82296875 111.765625 64.0234375 C111.67915354 61.77311589 111.67915354 61.77311589 109.5 60 C107.3601368 59.681616 107.3601368 59.681616 105 59.75 C104.2059375 59.74484375 103.411875 59.7396875 102.59375 59.734375 C100.28107249 59.81060091 100.28107249 59.81060091 98.5 62 C98.1709686 63.61422242 97.90792545 65.2423983 97.6875 66.875 C97.01969386 70.45733993 96.68043075 71.78949746 94.25 74.625 C90.99694595 76.25152702 89.09015195 76.54632747 85.5 76 C83.625 75 83.625 75 82.5 73 C81.61826115 68.51114768 81.80966639 66.28935325 83.9765625 62.2421875 C88.73849476 55.27952161 93.99555856 50.75222072 101.5 47 C107.98151824 46.11018158 113.14563059 46.08026837 118.5 50.125 C123.31234022 54.43169578 127.12740923 58.93204176 127.73828125 65.6015625 C128.01777501 76.98725549 124.14391266 85.16706792 116.375 93.5 C97.16357445 112.0560251 65.37875915 113.50841595 40.25 114.5 C29.61542838 114.94001243 17.80043224 115.55679124 9.5 123 C4.74246791 128.97741211 4.30491341 133.67800742 4.3125 141.125 C4.31330566 141.99060547 4.31411133 142.85621094 4.31494141 143.74804688 C4.39982226 153.47439368 5.03643958 163.16864131 5.65209961 172.87255859 C6.16029255 180.93885821 6.60861723 189.00234291 6.9375 197.078125 C6.97279816 197.94205872 7.00809631 198.80599243 7.04446411 199.69610596 C7.08022552 200.57208435 7.11598694 201.44806274 7.15283203 202.35058594 C7.9430213 221.6757811 9.09774851 240.95940091 10.5 260.25 C10.58376892 261.43251343 10.66753784 262.61502686 10.75384521 263.83337402 C10.99458542 267.20726944 11.24549747 270.58024284 11.5 273.953125 C11.57082794 274.95331665 11.64165588 275.9535083 11.71463013 276.98400879 C12.14947763 282.54276868 13.01002012 287.62705372 14.5 293 C14.61859375 293.80308594 14.7371875 294.60617187 14.859375 295.43359375 C15.68570721 299.67267801 17.00382169 301.60531271 20.421875 304.32421875 C24.01617226 306.71670607 27.75115581 308.8614386 31.5 311 C44.25777327 318.57440536 55.21268516 327.25438044 61.5 341 C61.5 342.65 61.5 344.3 61.5 346 C12 346 -37.5 346 -88.5 346 C-89.5 342 -89.5 342 -87.9453125 338.86328125 C-87.18974554 337.66820038 -86.41502592 336.48508636 -85.625 335.3125 C-85.20573242 334.68674072 -84.78646484 334.06098145 -84.35449219 333.41625977 C-76.62275119 322.15702085 -67.06713452 315.92979678 -55.4609375 309.015625 C-46.69532318 304.23030896 -46.69532318 304.23030896 -41.125 296.375 C-40.82851563 295.61960937 -40.53203125 294.86421875 -40.2265625 294.0859375 C-39.12664523 290.92811051 -38.36668347 288.29993562 -38.25390625 284.96484375 C-38.20459961 283.74764648 -38.20459961 283.74764648 -38.15429688 282.50585938 C-38.09519546 280.85227723 -38.0377706 279.19863388 -37.98242188 277.54492188 C-37.75128584 271.92351899 -37.22288127 266.37071179 -36.5625 260.78515625 C-35.27080836 249.71729727 -34.60426956 238.62010111 -33.9375 227.5 C-33.80619599 225.36360409 -33.67484801 223.22721088 -33.54345703 221.09082031 C-32.81021331 209.01927676 -32.14328443 196.95098935 -31.79077148 184.86132812 C-31.65730968 180.36525716 -31.41977175 175.91659455 -31 171.4375 C-30.36565223 164.15598493 -30.20694097 156.88613493 -30.14990234 149.58056641 C-30.13322265 148.01954363 -30.10577772 146.45860081 -30.06787109 144.89794922 C-29.54668893 133.52981421 -29.54668893 133.52981421 -34.08984375 123.41210938 C-44.48533372 113.00222122 -59.54787924 112.53841563 -73.375 112.5 C-99.84765298 112.57310692 -131.37420301 115.65071401 -151.390625 134.7109375 C-154.95366793 138.5774989 -157.31247684 141.98442482 -157.64453125 147.32421875 C-157.3391939 152.31689702 -156.18101659 155.43052937 -152.5 159 C-149.73749964 160.38125018 -147.55268901 160.19079306 -144.5 160 C-142.15186266 158.06832602 -142.15186266 158.06832602 -142.125 154.625 C-141.5 151 -141.5 151 -139.8125 148.5625 C-136.76222457 146.50150309 -135.11360931 146.39773178 -131.5 147 C-129.125 148.4375 -129.125 148.4375 -127.5 151 C-126.64021601 155.62353225 -127.02006167 159.04012334 -129.125 163.25 C-133.1775372 167.94241149 -136.8877084 171.6985639 -143.35546875 172.23828125 C-150.46513775 172.39664433 -155.57940711 172.06952447 -161.5 168 C-162.386875 167.4225 -163.27375 166.845 -164.1875 166.25 C-170.45208145 160.15473156 -172.77371246 153.69429136 -172.9375 145.0625 C-172.99735984 132.75479696 -167.84516182 124.38516812 -159.390625 115.6015625 C-145.57592915 103.16833623 -128.24514845 97.36855046 -110.5 93 C-109.77731934 92.81163574 -109.05463867 92.62327148 -108.31005859 92.42919922 C-94.94534589 88.99719144 -81.53749917 88.2485199 -67.80883789 87.68286133 C-49.28208392 87.14790793 -49.28208392 87.14790793 -33.6796875 78.140625 C-32.14910219 76.15624807 -30.81283547 74.13335765 -29.5 72 C-29.0875 71.4328125 -28.675 70.865625 -28.25 70.28125 C-24.92290043 65.38302008 -24.5051763 60.68969342 -25.5 55 C-27.42015927 49.86824692 -30.4751457 45.90456314 -34.125 41.875 C-39.6869341 35.69507322 -41.08325488 30.14490923 -40.84765625 21.9296875 C-40.33422536 17.60302266 -38.96635979 14.55309957 -36.5 11 C-36.0875 10.39542969 -35.675 9.79085937 -35.25 9.16796875 C-26.62341851 -2.08089746 -13.21311539 -5.90158965 0 0 Z " fill="#A47411" transform="translate(525.5,212)"/>
<path d="M0 0 C42.24 0 84.48 0 128 0 C125.96721875 16.26224998 118.69744706 30.45105389 106 41 C90.43578953 52.44548988 72.10148447 57.2070322 52.92285156 54.73193359 C38.33362782 52.14423134 26.27854086 44.42616801 16 34 C15.35417969 33.36449219 14.70835937 32.72898437 14.04296875 32.07421875 C8.99730326 26.76472762 5.96326486 20.6512911 3 14 C2.63519531 13.24074219 2.27039063 12.48148437 1.89453125 11.69921875 C1 9 1 9 0 0 Z " fill="#A97712" transform="translate(566,364)"/>
<path d="M0 0 C40.92 0 81.84 0 124 0 C122.68837601 11.80461588 119.04264765 20.527544 112 30 C111.278125 31.010625 110.55625 32.02125 109.8125 33.0625 C100.84740335 43.40684229 85.51710469 51.22726496 72 53 C61.36950739 53.64746626 51.15532568 53.4908932 41 50 C40.154375 49.73316406 39.30875 49.46632813 38.4375 49.19140625 C31.38956335 46.71361602 25.82732688 42.59721319 20 38 C19.33871094 37.505 18.67742187 37.01 17.99609375 36.5 C8.48446538 29.00985864 3.74214484 18.22643451 0 7 C0 4.69 0 2.38 0 0 Z " fill="#A27211" transform="translate(321,442)"/>
<path d="M0 0 C2.22958281 2.05684258 3.6351655 3.91935205 4.94189453 6.65087891 C5.293013 7.37659088 5.64413147 8.10230286 6.00588989 8.8500061 C6.37777435 9.63426971 6.74965881 10.41853333 7.1328125 11.2265625 C7.52894745 12.04764496 7.9250824 12.86872742 8.33322144 13.71469116 C9.60308754 16.34865241 10.86461473 18.98649056 12.125 21.625 C13.76918895 25.05674393 15.41788136 28.48627996 17.0703125 31.9140625 C17.47582336 32.75745178 17.88133423 33.60084106 18.2991333 34.4697876 C21.42603677 40.92870101 24.73475199 47.27655552 28.21438599 53.55264282 C30.12434346 57.05711935 31.32595096 60.08183779 32 64 C22.2878922 64.91295844 12.63705028 65.14844006 2.890625 65.1328125 C1.38702377 65.13348791 -0.11657736 65.13445991 -1.62017822 65.13571167 C-4.73963482 65.13717204 -7.85906244 65.13508455 -10.97851562 65.13037109 C-14.98340981 65.12461487 -18.98823784 65.12799998 -22.99312973 65.13394356 C-26.083074 65.13754375 -29.17300235 65.13641413 -32.26294708 65.13381577 C-33.74139667 65.13314805 -35.21984769 65.13396951 -36.69829559 65.13629532 C-38.74905878 65.13881925 -40.79982705 65.13429406 -42.85058594 65.12939453 C-44.01716736 65.12859894 -45.18374878 65.12780334 -46.38568115 65.12698364 C-49 65 -49 65 -50 64 C-52.18639453 63.92741054 -54.37500389 63.91626217 -56.5625 63.9375 C-57.76003906 63.94652344 -58.95757812 63.95554687 -60.19140625 63.96484375 C-61.58166016 63.98224609 -61.58166016 63.98224609 -63 64 C-62.33965756 59.58964911 -60.72634769 55.7732541 -58.90234375 51.7421875 C-58.59201202 51.0450061 -58.2816803 50.34782471 -57.96194458 49.6295166 C-57.29971752 48.14289537 -56.63526782 46.65726254 -55.96878052 45.17254639 C-54.24772529 41.33828002 -52.54254338 37.49696399 -50.8359375 33.65625 C-50.50149124 32.90467621 -50.16704498 32.15310242 -49.82246399 31.37875366 C-46.08739411 22.9724946 -42.51076447 14.50210692 -39 6 C-37.88109375 6.32871094 -36.7621875 6.65742188 -35.609375 6.99609375 C-30.77876236 8.20374691 -26.20172012 8.19076277 -21.25 8.0625 C-19.58863117 8.02794148 -17.92716251 7.99783106 -16.265625 7.97265625 C-15.54149414 7.95468994 -14.81736328 7.93672363 -14.07128906 7.91821289 C-11.87070352 8.00510541 -10.07537437 8.25586176 -8 9 C-6.515625 11.50390625 -6.515625 11.50390625 -5.25 14.5625 C-4.82203125 15.57441406 -4.3940625 16.58632813 -3.953125 17.62890625 C-3.48132813 18.80259766 -3.48132813 18.80259766 -3 20 C-3.20496094 19.38511719 -3.40992188 18.77023437 -3.62109375 18.13671875 C-4.74739583 14.7578125 -5.87369792 11.37890625 -7 8 C-5.56640625 5.95703125 -5.56640625 5.95703125 -3.5625 3.8125 C-2.90378906 3.09707031 -2.24507813 2.38164062 -1.56640625 1.64453125 C-1.04949219 1.10183594 -0.53257812 0.55914062 0 0 Z " fill="#18100E" transform="translate(399,375)"/>
<path d="M0 0 C0.495 0.99 0.495 0.99 1 2 C1.99 2.33 2.98 2.66 4 3 C5.02050781 4.63769531 5.02050781 4.63769531 5.953125 6.828125 C6.31809082 7.67342773 6.68305664 8.51873047 7.05908203 9.38964844 C7.64858643 10.80552246 7.64858643 10.80552246 8.25 12.25 C8.87624268 13.72388184 8.87624268 13.72388184 9.51513672 15.22753906 C11.02735763 18.81130286 12.51570149 22.40461868 14 26 C14.46545227 27.12414307 14.46545227 27.12414307 14.94030762 28.27099609 C17.0026481 33.25268114 19.05445278 38.23855589 21.09460449 43.22937012 C21.78160743 44.90996764 22.46984048 46.59006283 23.15930176 48.26965332 C24.13528152 50.6514765 25.10390005 53.03615653 26.0703125 55.421875 C26.51490311 56.50329773 26.51490311 56.50329773 26.96847534 57.60656738 C28.15723965 60.56123708 29 62.78329783 29 66 C16.60987777 67.32013441 4.19454586 67.19565999 -8.25 67.1875 C-9.37185699 67.1882251 -10.49371399 67.1889502 -11.64956665 67.18969727 C-30.49932414 67.18835319 -49.21458305 66.55357237 -68 65 C-64.46395032 55.28925751 -60.6894567 45.71398951 -56.62890625 36.2097168 C-56.30148437 35.44312744 -55.9740625 34.67653809 -55.63671875 33.88671875 C-55.19912231 32.86904419 -55.19912231 32.86904419 -54.75268555 31.83081055 C-54.101341 30.24649893 -53.54169115 28.62507345 -53 27 C-51.56333984 26.77957031 -51.56333984 26.77957031 -50.09765625 26.5546875 C-32.52221561 23.67193146 -13.62375848 18.53817023 -2 4 C-1.29547323 2.68627847 -0.61775165 1.35668903 0 0 Z " fill="#18100D" transform="translate(648,296)"/>
<path d="M0 0 C5.28 0 10.56 0 16 0 C20.27465446 15.60803227 24.36710427 31.22954939 28 47 C32.247258 34.28474769 36.02260828 21.551489 39.13330078 8.5078125 C39.3651709 7.53972656 39.59704102 6.57164062 39.8359375 5.57421875 C40.13830322 4.28390747 40.13830322 4.28390747 40.44677734 2.9675293 C41 1 41 1 42 0 C44.18639453 -0.07258946 46.37500389 -0.08373783 48.5625 -0.0625 C50.35880859 -0.04896484 50.35880859 -0.04896484 52.19140625 -0.03515625 C53.11824219 -0.02355469 54.04507813 -0.01195312 55 0 C58.24312275 11.13970421 61.41098328 22.27695724 64.140625 33.5546875 C64.73817185 35.95030715 65.3994489 38.33055866 66.109375 40.6953125 C67 44 67 44 67 48 C67.66 48 68.32 48 69 48 C69.09796875 47.32517578 69.1959375 46.65035156 69.296875 45.95507812 C70.57251615 37.72389364 72.4181784 29.70932756 74.45898438 21.64257812 C75.00581409 19.47697452 75.54236527 17.30899074 76.078125 15.140625 C76.4264789 13.74984846 76.77541561 12.35921775 77.125 10.96875 C77.59292969 9.10379883 77.59292969 9.10379883 78.0703125 7.20117188 C79 4 79 4 81 0 C86.28 0 91.56 0 97 0 C96.566875 1.5675 96.13375 3.135 95.6875 4.75 C94.63387667 8.59062699 93.65859883 12.43543543 92.75 16.3125 C91.31204243 22.15514866 89.47965131 27.84247373 87.625 33.5625 C83.42888508 46.5459946 79.43832575 59.65088261 77.359375 73.1640625 C77 75 77 75 76 76 C73.64686445 76.07271741 71.29166332 76.08370868 68.9375 76.0625 C67.00197266 76.04896484 67.00197266 76.04896484 65.02734375 76.03515625 C64.02832031 76.02355469 63.02929688 76.01195312 62 76 C59.90649191 70.57396884 58.0568973 65.14719798 56.4375 59.5625 C56.21916504 58.81532715 56.00083008 58.0681543 55.77587891 57.29833984 C54.51525202 52.93419226 53.37334106 48.57837137 52.46875 44.125 C51.66947519 40.50162086 50.61170317 36.9476021 49.5859375 33.3828125 C49 31 49 31 49 28 C48.34 28 47.68 28 47 28 C46.77441406 29.27875 46.54882812 30.5575 46.31640625 31.875 C44.84481577 39.22906274 42.71301576 46.3986226 40.6315918 53.59814453 C39.93138777 56.02115094 39.23771306 58.44595858 38.54492188 60.87109375 C38.10193908 62.41417066 37.65859312 63.95714337 37.21484375 65.5 C36.90389015 66.58583374 36.90389015 66.58583374 36.58665466 67.69360352 C35.11615727 72.76768545 35.11615727 72.76768545 34 75 C29.05 75 24.1 75 19 75 C18.58363281 73.329375 18.16726563 71.65875 17.73828125 69.9375 C15.9078178 62.61993549 14.06105877 55.3066547 12.1875 48 C12.01458435 47.32556854 11.8416687 46.65113708 11.66351318 45.95626831 C9.08274667 35.91921274 6.30641149 25.96282465 3.2265625 16.06640625 C0 5.55122473 0 5.55122473 0 0 Z " fill="#A67512" transform="translate(538,732)"/>
<path d="M0 0 C42.66666667 0 42.66666667 0 50 6 C55.24703576 11.49108394 58.1025719 16.68617709 58.5 24.3125 C58.28161331 31.22491336 55.9339912 36.96295539 51.109375 41.95703125 C49.46914298 43.38056595 47.74154701 44.70237674 46 46 C46.51644226 51.2160668 49.19725763 55.07194551 51.875 59.4375 C60 72.84257925 60 72.84257925 60 76 C54.06 76 48.12 76 42 76 C40.1447963 72.478171 38.29212741 68.95518513 36.44580078 65.42871094 C35.81673913 64.22904458 35.18621123 63.03014591 34.55419922 61.83203125 C33.64687655 60.11139422 32.74522848 58.38776861 31.84375 56.6640625 C31.29912109 55.62717285 30.75449219 54.5902832 30.19335938 53.52197266 C29 51 29 51 29 49 C24.71 49 20.42 49 16 49 C16 57.91 16 66.82 16 76 C10.72 76 5.44 76 0 76 C0 50.92 0 25.84 0 0 Z " fill="#AA7812" transform="translate(211,620)"/>
<path d="M0 0 C42.39736842 0 42.39736842 0 51 7 C56.21122177 12.64658966 58.53747627 18.88828293 58.3046875 26.5703125 C57.29030243 34.65938319 53.92340639 39.81978399 47.609375 44.8203125 C47.07828125 45.20960938 46.5471875 45.59890625 46 46 C46.67172409 49.54327975 48.12947501 52.21406602 49.94140625 55.31640625 C50.52470703 56.32767578 51.10800781 57.33894531 51.70898438 58.38085938 C52.94735048 60.50656896 54.1869395 62.63156657 55.42773438 64.75585938 C56.00974609 65.76583984 56.59175781 66.77582031 57.19140625 67.81640625 C57.72967041 68.73881104 58.26793457 69.66121582 58.82250977 70.61157227 C60 73 60 73 60 76 C54.06 76 48.12 76 42 76 C37.71 67.42 33.42 58.84 29 50 C25.04 50 21.08 50 17 50 C16.67 58.58 16.34 67.16 16 76 C10.72 76 5.44 76 0 76 C0 50.92 0 25.84 0 0 Z " fill="#A97712" transform="translate(869,620)"/>
<path d="M0 0 C5.61 0 11.22 0 17 0 C24.82241525 19.3773535 32.63238929 38.75668065 40 58.3125 C40.25865845 58.99417236 40.51731689 59.67584473 40.78381348 60.37817383 C41.50721316 62.28780029 42.22257412 64.20046623 42.9375 66.11328125 C43.33839844 67.18360596 43.73929688 68.25393066 44.15234375 69.35668945 C45 72 45 72 45 75 C39.39 75 33.78 75 28 75 C26.35 70.71 24.7 66.42 23 62 C8.15 61.505 8.15 61.505 -7 61 C-7.99 64.3 -8.98 67.6 -10 71 C-10.66 72.32 -11.32 73.64 -12 75 C-17.28 75 -22.56 75 -28 75 C-26.87493316 68.24959896 -26.87493316 68.24959896 -25.66821289 65.13549805 C-25.39991669 64.43499832 -25.13162048 63.7344986 -24.85519409 63.01277161 C-24.5639566 62.26992416 -24.27271912 61.52707672 -23.97265625 60.76171875 C-23.66788361 59.97137741 -23.36311096 59.18103607 -23.04910278 58.366745 C-22.05927182 55.80474572 -21.06111991 53.24608484 -20.0625 50.6875 C-19.37961901 48.92607779 -18.69708486 47.16452109 -18.01489258 45.40283203 C-13.06734386 32.64787729 -8.04193188 19.92440013 -2.90698242 7.24365234 C-1.93190574 4.83155148 -0.9662587 2.41564675 0 0 Z " fill="#A77512" transform="translate(490,732)"/>
<path d="M0 0 C5.28 0 10.56 0 16 0 C16 9.9 16 19.8 16 30 C25.9 30 35.8 30 46 30 C46 20.1 46 10.2 46 0 C51.28 0 56.56 0 62 0 C62.33 25.08 62.66 50.16 63 76 C57.39 76 51.78 76 46 76 C46 66.1 46 56.2 46 46 C35.77 46 25.54 46 15 46 C15 55.57 15 65.14 15 75 C10.05 75 5.1 75 0 75 C0 50.25 0 25.5 0 0 Z " fill="#A67512" transform="translate(98,620)"/>
<path d="M0 0 C5.28 0 10.56 0 16 0 C16 9.9 16 19.8 16 30 C26.23 30 36.46 30 47 30 C47 20.1 47 10.2 47 0 C52.28 0 57.56 0 63 0 C62.67 24.75 62.34 49.5 62 75 C57.05 75 52.1 75 47 75 C47 65.43 47 55.86 47 46 C36.77 46 26.54 46 16 46 C16 55.9 16 65.8 16 76 C10.72 76 5.44 76 0 76 C0 50.92 0 25.84 0 0 Z " fill="#A67512" transform="translate(496,620)"/>
<path d="M0 0 C17.16 0 34.32 0 52 0 C52 4.62 52 9.24 52 14 C40.12 14 28.24 14 16 14 C16 19.28 16 24.56 16 30 C25.9 30 35.8 30 46 30 C46 34.62 46 39.24 46 44 C36.43 44.33 26.86 44.66 17 45 C16.67 50.28 16.34 55.56 16 61 C27.88 61 39.76 61 52 61 C52 65.95 52 70.9 52 76 C34.84 76 17.68 76 0 76 C0 50.92 0 25.84 0 0 Z " fill="#AB7912" transform="translate(798,620)"/>
<path d="M0 0 C5.61 0 11.22 0 17 0 C17.01981934 1.57934326 17.03963867 3.15868652 17.06005859 4.78588867 C17.13614855 10.64721583 17.22486126 16.50829584 17.31738281 22.36938477 C17.35565843 24.90579345 17.39051376 27.44225616 17.421875 29.97875977 C17.46755563 33.62535911 17.5255463 37.27158702 17.5859375 40.91796875 C17.59748871 42.05147263 17.60903992 43.1849765 17.62094116 44.35282898 C17.64081085 45.41355118 17.66068054 46.47427338 17.68115234 47.56713867 C17.69447601 48.49757492 17.70779968 49.42801117 17.7215271 50.38664246 C18.03012645 53.28272473 18.67379242 55.40867643 20 58 C25.65862656 61.49149298 31.46061775 61.7426732 38 61 C41.95286442 59.69748021 43.82182995 58.59398058 46 55 C46.98964237 52.03107289 47.15273727 49.98850092 47.20532227 46.88598633 C47.22526749 45.84513382 47.24521271 44.80428131 47.26576233 43.73188782 C47.28247482 42.60993515 47.29918732 41.48798248 47.31640625 40.33203125 C47.33718735 39.18208176 47.35796844 38.03213226 47.37937927 36.84733582 C47.44483342 33.16911875 47.50374074 29.49082952 47.5625 25.8125 C47.60568913 23.32095604 47.64930355 20.82941941 47.69335938 18.33789062 C47.80051065 12.22533462 47.90178997 6.11270594 48 0 C53.28 0 58.56 0 64 0 C63.95573926 7.81087603 63.88578832 15.62095208 63.79248047 23.43139648 C63.762152 26.08614811 63.74308861 28.74029755 63.72900391 31.39526367 C63.70749103 35.22097004 63.660794 39.04568641 63.609375 42.87109375 C63.60753204 44.63881386 63.60753204 44.63881386 63.60565186 46.44224548 C63.43851026 55.93982308 61.26365927 63.38260268 54.77734375 70.49609375 C46.38854487 77.59430819 35.40218438 77.72961213 25 77 C16.49760933 75.24888728 10.06084198 71.13969253 4.69140625 64.34375 C-0.43904001 56.37558438 -0.28778941 46.44438385 -0.1953125 37.3046875 C-0.1924826 36.23123077 -0.18965271 35.15777405 -0.18673706 34.05178833 C-0.17563822 30.65940695 -0.15055314 27.26730013 -0.125 23.875 C-0.11495688 21.55989968 -0.10583338 19.24479517 -0.09765625 16.9296875 C-0.07573268 11.28635428 -0.04127484 5.64322352 0 0 Z " fill="#AA7812" transform="translate(579,620)"/>
<path d="M0 0 C5.70077015 3.30797197 9.71933282 7.28528944 13 13 C12.85546875 15.06640625 12.85546875 15.06640625 12 17 C8.85577399 19.44632538 5.34029852 20.90426439 1.375 21.1875 C-1.17597527 19.91201236 -2.10735296 18.81595199 -3.875 16.625 C-7.37043326 12.30450254 -10.78161988 10.42139183 -16.38671875 9.6875 C-22.43231551 9.39123798 -27.08259786 10.40448016 -32 14 C-37.04531058 18.62200787 -40.53136818 23.86331168 -41.31640625 30.79296875 C-41.65064654 39.29992317 -39.75450114 45.60206646 -34.625 52.375 C-30.28958125 56.71041875 -26.30177739 58.36260024 -20.13769531 58.46826172 C-19.45288086 58.45811035 -18.76806641 58.44795898 -18.0625 58.4375 C-16.99854004 58.42614014 -16.99854004 58.42614014 -15.91308594 58.41455078 C-10.35150157 58.23842109 -7.19616083 57.62395708 -3 54 C-1.42965667 52.05486174 -0.24283674 50.18739266 1 48 C5.97306516 48.49730652 9.63799813 49.55302334 14 52 C13.09692427 58.83248084 8.44735611 62.68145211 3.625 67.25 C-3.62508923 72.08339282 -10.13926828 73.72608838 -18.8125 73.625 C-19.77937744 73.61807129 -20.74625488 73.61114258 -21.74243164 73.60400391 C-29.79941476 73.3589709 -35.38390856 71.79362886 -42 67 C-43.01900391 66.31550781 -43.01900391 66.31550781 -44.05859375 65.6171875 C-51.72956775 59.8433361 -56.3818466 50.31786669 -58 41 C-59.16591564 27.86725579 -56.47217194 18.12569444 -48 8 C-35.35528322 -5.74077045 -16.5976159 -8.09823253 0 0 Z " fill="#AA7812" transform="translate(465,623)"/>
<path d="M0 0 C5.93670599 3.46874638 9.80389516 6.8285699 13.4375 12.75 C12.3655096 16.2041913 11.34033569 16.80218083 8.0625 18.5625 C3.22916667 20.14583333 3.22916667 20.14583333 0.4375 18.75 C-1.24954193 17.44254251 -2.91610035 16.10827971 -4.5625 14.75 C-8.82899985 12.23977244 -12.7175265 12.0701547 -17.5625 12.75 C-20.79088773 14.08016164 -20.79088773 14.08016164 -22.5625 16.75 C-22.8934316 20.35030189 -22.8934316 20.35030189 -21.5625 23.75 C-17.49753384 26.91680221 -13.17462116 27.64632037 -8.25 28.625 C1.34789633 30.72186525 7.5365322 33.70322573 13.4375 41.75 C14.95367889 44.78235777 14.64784412 47.62925013 14.6875 51 C14.71328125 52.30453125 14.7390625 53.6090625 14.765625 54.953125 C14.25794391 60.8277205 12.12714276 64.62828651 7.6875 68.4375 C-0.73229657 75.29470369 -7.82463771 75.57510788 -18.5625 74.75 C-26.6460012 73.34213332 -32.86501855 68.98697774 -38.0625 62.75 C-39.7121871 59.45062581 -39.90904062 57.38867652 -39.5625 53.75 C-35.43462546 51.39121455 -32.32811271 49.73603985 -27.5625 50.75 C-26.12386373 52.39981223 -25.00953778 54.14582273 -23.8359375 55.9921875 C-21.84320133 58.74289693 -19.73443146 59.6715433 -16.5625 60.75 C-11.3286425 61.31077045 -8.02056615 60.54925084 -3.5625 57.75 C-1.23892489 54.86556254 -1.23892489 54.86556254 -1.5625 51.25 C-2.18569189 47.57758592 -2.18569189 47.57758592 -5.16796875 46.1484375 C-8.71434806 44.68744349 -12.14274342 43.75089822 -15.875 42.875 C-25.35606384 40.4934014 -32.44836382 37.56217476 -37.640625 28.96484375 C-39.8969294 23.54397682 -39.25154137 16.74459345 -37.375 11.3125 C-28.66047573 -1.00803431 -14.3247726 -6.97983673 0 0 Z " fill="#A87612" transform="translate(377.5625,621.25)"/>
<path d="M0 0 C5.28 0 10.56 0 16 0 C16.33 19.8 16.66 39.6 17 60 C28.55 60.33 40.1 60.66 52 61 C52 65.95 52 70.9 52 76 C34.84 76 17.68 76 0 76 C0 50.92 0 25.84 0 0 Z " fill="#A67512" transform="translate(398,732)"/>
<path d="M0 0 C5.28 0 10.56 0 16 0 C16 20.13 16 40.26 16 61 C27.88 61 39.76 61 52 61 C52 65.95 52 70.9 52 76 C34.84 76 17.68 76 0 76 C0 50.92 0 25.84 0 0 Z " fill="#A77612" transform="translate(664,620)"/>
<path d="M0 0 C4.95 0 9.9 0 15 0 C15 20.13 15 40.26 15 61 C26.88 61 38.76 61 51 61 C51 65.95 51 70.9 51 76 C34.17 76 17.34 76 0 76 C0 50.92 0 25.84 0 0 Z " fill="#AC7912" transform="translate(732,620)"/>
<path d="M0 0 C4.91669678 3.49631771 9.12734596 6.76936862 10.4296875 12.91015625 C10.6831091 18.80593535 9.98051752 23.57683031 6.421875 28.375 C2.42041378 32.41531036 -2.04715223 34.18323524 -7.6875 34.5625 C-12.79023813 34.29810942 -16.39502689 32.34730697 -20.1875 29 C-24.52995738 23.78905114 -24.9707923 18.88840855 -24.77734375 12.171875 C-23.83638634 7.11189211 -21.19031572 4.09974144 -17.1875 1 C-11.91671482 -2.24356011 -5.74772993 -1.80320939 0 0 Z " fill="#18100D" transform="translate(519.1875,299)"/>
<path d="M0 0 C2.22958281 2.05684258 3.6351655 3.91935205 4.94189453 6.65087891 C5.293013 7.37659088 5.64413147 8.10230286 6.00588989 8.8500061 C6.37777435 9.63426971 6.74965881 10.41853333 7.1328125 11.2265625 C7.72701492 12.45818619 7.72701492 12.45818619 8.33322144 13.71469116 C9.60308754 16.34865241 10.86461473 18.98649056 12.125 21.625 C13.76918895 25.05674393 15.41788136 28.48627996 17.0703125 31.9140625 C17.47582336 32.75745178 17.88133423 33.60084106 18.2991333 34.4697876 C21.42603677 40.92870101 24.73475199 47.27655552 28.21438599 53.55264282 C30.19657897 57.18966034 31.17028782 59.85143911 32 64 C28.04 64 24.08 64 20 64 C13.15073307 51.57711757 7.04686514 38.82876971 1 26 C0.58057129 25.1116748 0.16114258 24.22334961 -0.27099609 23.30810547 C-2.52097818 18.54199484 -4.76416812 13.77276433 -7 9 C-6.02180976 7.68677212 -5.0424189 6.37443848 -4.0625 5.0625 C-3.51722656 4.33160156 -2.97195313 3.60070312 -2.41015625 2.84765625 C-1 1 -1 1 0 0 Z " fill="#A57412" transform="translate(399,375)"/>
<path d="M0 0 C3.3752127 3.098588 4.79815233 6.73231287 6.51171875 10.90234375 C6.84146194 11.68845032 7.17120514 12.47455688 7.51094055 13.28448486 C8.5772991 15.8324326 9.63276375 18.38472173 10.6875 20.9375 C11.41168602 22.6770155 12.13629552 24.41635476 12.86132812 26.15551758 C14.61087618 30.35922072 16.35044659 34.56694702 18.08441162 38.77709961 C18.89802434 40.75241961 19.71353497 42.72694078 20.52978516 44.70117188 C21.69484149 47.52666283 22.85125052 50.35534737 24 53.1875 C24.31928467 53.96794678 24.63856934 54.74839355 24.9675293 55.55249023 C26.15502971 58.52553014 27 60.76679928 27 64 C23.04 64 19.08 64 15 64 C10.80442956 54.17105127 7.05721181 44.21723338 3.375 34.1875 C2.51344198 31.84314254 1.65109762 29.49908718 0.78652954 27.15583801 C0.25377837 25.71175011 -0.27729111 24.26704017 -0.80630493 22.82157898 C-2.01343568 19.54786171 -3.27668044 16.32693092 -4.68505859 13.1340332 C-6 10 -6 10 -6 7.9375 C-4.43309996 4.90163118 -2.26395877 2.5542099 0 0 Z " fill="#A97712" transform="translate(650,298)"/>
<path d="M0 0 C1.4835001 0.42257276 2.96176424 0.86356322 4.4375 1.3125 C5.67306641 1.67794922 5.67306641 1.67794922 6.93359375 2.05078125 C7.95646484 2.52064453 7.95646484 2.52064453 9 3 C10.20625245 6.61875736 9.71817269 7.35576759 8.29345703 10.79101562 C7.69756271 12.24767639 7.69756271 12.24767639 7.08963013 13.73376465 C6.4303804 15.3041449 6.4303804 15.3041449 5.7578125 16.90625 C5.31484833 17.98249634 4.87188416 19.05874268 4.41549683 20.16760254 C2.99422898 23.61549016 1.55993725 27.05778175 0.125 30.5 C-1.2998619 33.94337628 -2.72211113 37.38782297 -4.14407349 40.83239746 C-5.03096937 42.97797276 -5.92012869 45.12261408 -6.81173706 47.26623535 C-7.21530426 48.23734253 -7.61887146 49.20844971 -8.03466797 50.20898438 C-8.39076141 51.06375366 -8.74685486 51.91852295 -9.11373901 52.79919434 C-9.80259817 54.50980234 -10.41684422 56.25053265 -11 58 C-15.29 58 -19.58 58 -24 58 C-23.10399243 53.51996217 -21.76181247 49.85163162 -19.90234375 45.7421875 C-19.59201202 45.0450061 -19.2816803 44.34782471 -18.96194458 43.6295166 C-18.29971752 42.14289537 -17.63526782 40.65726254 -16.96878052 39.17254639 C-15.24772529 35.33828002 -13.54254338 31.49696399 -11.8359375 27.65625 C-11.50149124 26.90467621 -11.16704498 26.15310242 -10.82246399 25.37875366 C-7.08739411 16.9724946 -3.51076447 8.50210692 0 0 Z " fill="#AA7812" transform="translate(360,381)"/>
<path d="M0 0 C4.5478125 -0.12375 4.5478125 -0.12375 9.1875 -0.25 C10.60712036 -0.30462402 10.60712036 -0.30462402 12.05541992 -0.36035156 C16.21574001 -0.41511005 18.4337676 -0.35090458 22.05078125 1.890625 C25.66372767 5.80042674 25.26982878 9.15116323 25.22265625 14.29296875 C24.95164613 17.58788131 24.21838854 19.53512385 22 22 C19.17588235 22.94137255 17.47081968 23.11725382 14.55078125 23.09765625 C13.78677002 23.09515869 13.02275879 23.09266113 12.2355957 23.09008789 C11.27097412 23.08098389 10.30635254 23.07187988 9.3125 23.0625 C4.7028125 23.0315625 4.7028125 23.0315625 0 23 C0 15.41 0 7.82 0 0 Z " fill="#160F0E" transform="translate(227,633)"/>
<path d="M0 0 C0.75603516 -0.02900391 1.51207031 -0.05800781 2.29101562 -0.08789062 C7.6069638 -0.14782759 10.60015829 0.78147016 14.8125 4.3125 C16.78002105 8.2475421 16.27672595 13.0230522 15.8125 17.3125 C14.01131522 20.31447464 12.90917268 21.76416366 9.8125 23.3125 C8.36401418 23.39592159 6.91179131 23.41982861 5.4609375 23.41015625 C4.61015625 23.40693359 3.759375 23.40371094 2.8828125 23.40039062 C1.99335937 23.39201172 1.10390625 23.38363281 0.1875 23.375 C-0.7096875 23.37048828 -1.606875 23.36597656 -2.53125 23.36132812 C-4.75006648 23.34952591 -6.96875018 23.33306155 -9.1875 23.3125 C-9.21637512 19.66668313 -9.23425585 16.02089537 -9.25 12.375 C-9.25837891 11.33408203 -9.26675781 10.29316406 -9.27539062 9.22070312 C-9.28022461 7.73666992 -9.28022461 7.73666992 -9.28515625 6.22265625 C-9.29039307 5.30621338 -9.29562988 4.38977051 -9.30102539 3.44555664 C-9.03761326 -1.50375908 -3.84992049 0.048004 0 0 Z " fill="#170F0D" transform="translate(894.1875,632.6875)"/>
<path d="M0 0 C-2.6905716 8.28869637 -5.7608716 16.41326381 -8.859375 24.55664062 C-9.24867188 25.58595703 -9.63796875 26.61527344 -10.0390625 27.67578125 C-10.39178223 28.60302002 -10.74450195 29.53025879 -11.10791016 30.4855957 C-12.12192795 33.21624625 -12.12192795 33.21624625 -13 37 C-17.29 37 -21.58 37 -26 37 C-22.76007833 28.10248783 -19.35614579 19.29297977 -15.6875 10.5625 C-15.33816406 9.72807373 -14.98882813 8.89364746 -14.62890625 8.03393555 C-14.30148437 7.26090088 -13.9740625 6.48786621 -13.63671875 5.69140625 C-13.34498779 5.00248291 -13.05325684 4.31355957 -12.75268555 3.60375977 C-12 2 -12 2 -11 1 C-7.26155861 0.36517033 -3.79819843 0 0 0 Z " fill="#AA7712" transform="translate(606,324)"/>
<path d="M0 0 C2.29662491 3.44493736 3.59470384 7.01391402 5 10.875 C5.52035709 12.28923782 6.04117996 13.70330436 6.5625 15.1171875 C6.92988281 16.12410645 6.92988281 16.12410645 7.3046875 17.15136719 C7.88865602 18.70396888 8.53146624 20.23426041 9.1875 21.7578125 C10 24 10 24 10 28 C3.4 28 -3.2 28 -10 28 C-9.29363837 23.76183023 -8.6757176 20.72831788 -7.1875 16.85546875 C-6.83429688 15.93185547 -6.48109375 15.00824219 -6.1171875 14.05664062 C-5.74851562 13.10982422 -5.37984375 12.16300781 -5 11.1875 C-4.63132812 10.22134766 -4.26265625 9.25519531 -3.8828125 8.25976562 C-1.14158929 1.14158929 -1.14158929 1.14158929 0 0 Z " fill="#160F0D" transform="translate(498,751)"/>
<path d="M0 0 C5.50619612 3.26293103 5.50619612 3.26293103 6.55078125 6.9375 C6.81013892 10.85009577 6.20809832 12.68785252 4 16 C0.68839905 18.20773397 -1.15003259 18.81363414 -5.0625 18.546875 C-8.78819693 17.495267 -10.12606223 15.22083055 -12 12 C-12.6875 8.4375 -12.6875 8.4375 -12 5 C-8.34039516 0.90472792 -5.52615278 -1.15128183 0 0 Z " fill="#A87711" transform="translate(188,679)"/>
<path d="M0 0 C2.69990662 1.79993774 4.5418865 3.083773 6 6 C6.43023798 9.87214182 6.31669086 11.52496371 4.125 14.8125 C1.42055063 17.59649199 0.57733296 17.93464155 -3.3125 18.375 C-7 18 -7 18 -9.9375 16 C-12.21876473 12.68179675 -12.81273098 10.88919871 -12.55078125 6.9375 C-10.89487619 1.11247227 -5.51629276 -1.05631138 0 0 Z " fill="#AA7711" transform="translate(299,679)"/>
<path d="M0 0 C5.28 0 10.56 0 16 0 C15.67 24.75 15.34 49.5 15 75 C10.05 75 5.1 75 0 75 C0 73.02 0 71.04 0 69 C0.33 69 0.66 69 1 69 C1 70.65 1 72.3 1 74 C5.29 74 9.58 74 14 74 C14 50.24 14 26.48 14 2 C9.71 2 5.42 2 1 2 C1.33 2.99 1.66 3.98 2 5 C2.09754291 7.7398082 2.13913139 10.44836652 2.125 13.1875 C2.12886719 13.91775391 2.13273438 14.64800781 2.13671875 15.40039062 C2.12795292 20.348702 1.69903576 25.10120175 1 30 C0.67 30 0.34 30 0 30 C0 20.1 0 10.2 0 0 Z " fill="#C58911" transform="translate(543,620)"/>
<path d="M0 0 C5.28 0 10.56 0 16 0 C16 8.91 16 17.82 16 27 C15.34 27.33 14.68 27.66 14 28 C14 19.42 14 10.84 14 2 C10.04 2 6.08 2 2 2 C2 22.13 2 42.26 2 63 C1.67 63 1.34 63 1 63 C0.30337937 41.99021838 -0.15100577 21.02335887 0 0 Z " fill="#B88213" transform="translate(496,620)"/>
<path d="M0 0 C14.39261142 0.80157148 28.79835142 0.59900985 43.20703125 0.52734375 C77.26450725 0.35826479 77.26450725 0.35826479 93.58203125 1.52734375 C93.58203125 1.85734375 93.58203125 2.18734375 93.58203125 2.52734375 C80.60154162 2.55072791 67.62105718 2.56838957 54.64055061 2.57915592 C48.61029429 2.5843286 42.5800526 2.59132141 36.54980469 2.6027832 C30.70773047 2.6138152 24.86567012 2.61966259 19.02358627 2.62222099 C16.81778622 2.62403929 14.61198675 2.62758757 12.40619278 2.63307381 C-3.55793725 2.67112479 -19.47018834 2.25099014 -35.41796875 1.52734375 C-35.41796875 1.19734375 -35.41796875 0.86734375 -35.41796875 0.52734375 C-31.5228361 0.32311673 -27.62689854 0.14245254 -23.73046875 -0.03515625 C-22.66634766 -0.09123047 -21.60222656 -0.14730469 -20.50585938 -0.20507812 C-13.61752924 -0.50631705 -6.87787173 -0.39146331 0 0 Z " fill="#04020C" transform="translate(601.41796875,361.47265625)"/>
<path d="M0 0 C5.28 0 10.56 0 16 0 C15.67 20.13 15.34 40.26 15 61 C14.67 61 14.34 61 14 61 C14 41.53 14 22.06 14 2 C9.71 2 5.42 2 1 2 C1.16298584 3.44036621 1.32597168 4.88073242 1.49389648 6.36474609 C2.02023585 11.64763595 2.12923515 16.85886907 2.09765625 22.1640625 C2.0962413 23.08214691 2.09482635 24.00023132 2.09336853 24.94613647 C2.0878322 27.83912608 2.07529219 30.73203433 2.0625 33.625 C2.05747675 35.60286345 2.0529153 37.58072814 2.04882812 39.55859375 C2.03788373 44.37242653 2.02066418 49.18619954 2 54 C1.67 54 1.34 54 1 54 C0.41048466 35.99469651 -0.14299584 18.01747527 0 0 Z " fill="#BD8513" transform="translate(664,620)"/>
<path d="M0 0 C2 2 2 2 2 5 C6.29 5 10.58 5 15 5 C15 5.33 15 5.66 15 6 C-26.58 6 -68.16 6 -111 6 C-111 5.67 -111 5.34 -111 5 C-110.08476562 4.95101563 -109.16953125 4.90203125 -108.2265625 4.8515625 C-107.03804688 4.77679688 -105.84953125 4.70203125 -104.625 4.625 C-103.44164062 4.55539062 -102.25828125 4.48578125 -101.0390625 4.4140625 C-97.89437681 4.29782654 -97.89437681 4.29782654 -96 2 C-96 2.99 -96 3.98 -96 5 C-48.48 4.505 -48.48 4.505 0 4 C0 2.68 0 1.36 0 0 Z " fill="#03010D" transform="translate(431,435)"/>
<path d="M0 0 C5.73375 -0.04125 11.4675 -0.0825 17.375 -0.125 C20.08855713 -0.15231201 20.08855713 -0.15231201 22.85693359 -0.18017578 C24.28743187 -0.18601584 25.71793347 -0.19111255 27.1484375 -0.1953125 C27.89391846 -0.20554443 28.63939941 -0.21577637 29.4074707 -0.22631836 C31.27317284 -0.22695317 33.13834854 -0.12287692 35 0 C35.66 0.66 36.32 1.32 37 2 C25.45 2 13.9 2 2 2 C2 20.15 2 38.3 2 57 C1.67 57 1.34 57 1 57 C0.67 38.19 0.34 19.38 0 0 Z " fill="#C38913" transform="translate(869,620)"/>
<path d="M0 0 C5.28 0 10.56 0 16 0 C15.67 1.32 15.34 2.64 15 4 C14.67 3.34 14.34 2.68 14 2 C9.71 2 5.42 2 1 2 C1.33 2.99 1.66 3.98 2 5 C2.09754291 7.7398082 2.13913139 10.44836652 2.125 13.1875 C2.12886719 13.91775391 2.13273438 14.64800781 2.13671875 15.40039062 C2.12795292 20.348702 1.69903576 25.10120175 1 30 C0.67 30 0.34 30 0 30 C0 20.1 0 10.2 0 0 Z " fill="#B78012" transform="translate(543,620)"/>
<path d="M0 0 C1.16144531 0.00902344 2.32289063 0.01804687 3.51953125 0.02734375 C4.39996094 0.03894531 5.28039062 0.05054688 6.1875 0.0625 C6.1875 0.3925 6.1875 0.7225 6.1875 1.0625 C5.42824219 1.083125 4.66898438 1.10375 3.88671875 1.125 C0.85580422 1.84121351 0.85580422 1.84121351 -0.54296875 5.1875 C-1.04837452 6.47157555 -1.53344136 7.76380526 -2 9.0625 C-4.59843087 15.95546543 -4.59843087 15.95546543 -6.8125 17.0625 C-3.73732916 6.50441344 -3.73732916 6.50441344 -1.8125 2.0625 C-5.1125 2.0625 -8.4125 2.0625 -11.8125 2.0625 C-11.8125 1.7325 -11.8125 1.4025 -11.8125 1.0625 C-7.81454108 0.10630267 -4.10446078 -0.0414592 0 0 Z " fill="#0C070C" transform="translate(593.8125,323.9375)"/>
<path d="M0 0 C5.03343806 2.32231693 7.2073873 5.47138979 9.75 10.375 C11.05621252 14.16301631 11.24336397 17.02505519 11 21 C10.34 21 9.68 21 9 21 C8.77957031 19.7315625 8.77957031 19.7315625 8.5546875 18.4375 C7.07066539 10.93210084 5.25471628 5.62883848 0 0 Z " fill="#B47F11" transform="translate(258,625)"/>
<path d="M0 0 C0.33 0 0.66 0 1 0 C0.51679152 6.2054142 -0.33318124 11.99945246 -2 18 C-2.66 18 -3.32 18 -4 18 C-4.33 15.36 -4.66 12.72 -5 10 C-4.01 10.495 -4.01 10.495 -3 11 C-2.01 7.37 -1.02 3.74 0 0 Z " fill="#0C080D" transform="translate(609,762)"/>
<path d="M0 0 C5.61 0 11.22 0 17 0 C17.33 0.99 17.66 1.98 18 3 C12.06 3 6.12 3 0 3 C0 2.01 0 1.02 0 0 Z " fill="#9D6D12" transform="translate(253,693)"/>
<path d="M0 0 C8.25 0.33 16.5 0.66 25 1 C25 1.33 25 1.66 25 2 C9.655 2.495 9.655 2.495 -6 3 C-6 2.67 -6 2.34 -6 2 C-4.02 2 -2.04 2 0 2 C0 1.34 0 0.68 0 0 Z " fill="#432E0D" transform="translate(445,298)"/>
<path d="M0 0 C2.76691737 2.5200232 4.67255441 5.35719179 6.6875 8.5 C7.31011719 9.4590625 7.93273437 10.418125 8.57421875 11.40625 C10 14 10 14 10 17 C5.48771065 13.00340086 2.43481021 8.53271767 0 3 C0 2.01 0 1.02 0 0 Z " fill="#AF7B12" transform="translate(325,457)"/>
<path d="M0 0 C5.78950706 0.77935672 9.22653579 3.66227946 13 8 C14 11.4375 14 11.4375 14 14 C13.443125 13.278125 12.88625 12.55625 12.3125 11.8125 C8.60446195 7.30272399 5.07461991 3.89978281 0 1 C0 0.67 0 0.34 0 0 Z " fill="#B47E11" transform="translate(377,653)"/>
<path d="M0 0 C5.33333333 4 10.66666667 8 16 12 C15.34 12.66 14.68 13.32 14 14 C12.22750476 12.5645497 10.45706424 11.12656197 8.6875 9.6875 C7.70136719 8.88699219 6.71523438 8.08648437 5.69921875 7.26171875 C1.49199806 3.73642095 1.49199806 3.73642095 0 2 C0 1.34 0 0.68 0 0 Z " fill="#0E090E" transform="translate(333,473)"/>
<path d="M0 0 C0.33 0 0.66 0 1 0 C1.2493357 1.60115576 1.47378648 3.20620159 1.6875 4.8125 C1.81511719 5.70582031 1.94273437 6.59914063 2.07421875 7.51953125 C2 10 2 10 0.65625 11.71875 C-3.09210526 14.61842105 -3.09210526 14.61842105 -5 16 C-5.66 15.67 -6.32 15.34 -7 15 C-6.21625 14.195625 -5.4325 13.39125 -4.625 12.5625 C-1.42870943 8.78671199 -0.71431378 4.79762984 0 0 Z " fill="#22160C" transform="translate(398,365)"/>
<path d="M0 0 C3.12749407 1.38463944 5.2404985 2.99522423 7.625 5.4375 C8.21539063 6.03433594 8.80578125 6.63117187 9.4140625 7.24609375 C11 9 11 9 13 12 C12.625 14.1875 12.625 14.1875 12 16 C11.55269531 15.34773437 11.10539063 14.69546875 10.64453125 14.0234375 C7.28054693 9.16036422 3.87762546 4.46514447 0 0 Z " fill="#0D090E" transform="translate(571,532)"/>
<path d="M0 0 C12.87 0.495 12.87 0.495 26 1 C26 1.33 26 1.66 26 2 C18.08 2 10.16 2 2 2 C1.67 2.66 1.34 3.32 1 4 C0.67 2.68 0.34 1.36 0 0 Z " fill="#BA8312" transform="translate(566,364)"/>
<path d="M0 0 C4.33333333 4.33333333 8.66666667 8.66666667 13 13 C8.23403576 12.10769392 5.22058608 9.52885377 2 6 C0.5625 2.625 0.5625 2.625 0 0 Z " fill="#B67F12" transform="translate(583,680)"/>
<path d="M0 0 C6.67353409 0.28398017 10.71077185 3.07805532 16 7 C15.34 7.66 14.68 8.32 14 9 C13.360625 8.4225 12.72125 7.845 12.0625 7.25 C8.2797269 4.47081977 4.32481492 2.77138389 0 1 C0 0.67 0 0.34 0 0 Z " fill="#B47E11" transform="translate(456,621)"/>
<path d="M0 0 C0.33 0 0.66 0 1 0 C1.56229448 10.72524662 1.56229448 10.72524662 -2 15 C-2.33 15 -2.66 15 -3 15 C-3.125 12.125 -3.125 12.125 -3 9 C-2.34 8.34 -1.68 7.68 -1 7 C-0.59952556 4.67724823 -0.2602896 2.34260643 0 0 Z " fill="#37250D" transform="translate(500,267)"/>
<path d="M0 0 C0 0.66 0 1.32 0 2 C-3.96 2 -7.92 2 -12 2 C-12 1.34 -12 0.68 -12 0 C-10.37585622 -0.19477739 -8.75063577 -0.38059458 -7.125 -0.5625 C-6.22007812 -0.66691406 -5.31515625 -0.77132813 -4.3828125 -0.87890625 C-2 -1 -2 -1 0 0 Z " fill="#B37D12" transform="translate(431,437)"/>
<path d="M0 0 C4.29951803 1.59241408 6.39671947 4.35540725 9 8 C8.67 8.99 8.34 9.98 8 11 C6.85204994 9.5433323 5.70670581 8.08461063 4.5625 6.625 C3.60537109 5.40683594 3.60537109 5.40683594 2.62890625 4.1640625 C1 2 1 2 0 0 Z " fill="#0B070D" transform="translate(917,624)"/>
<path d="M0 0 C1.485 0.99 1.485 0.99 3 2 C2.67 5.96 2.34 9.92 2 14 C1.67 14 1.34 14 1 14 C0.04738513 9.23692563 -0.08333357 4.8333472 0 0 Z " fill="#3C290D" transform="translate(537,489)"/>
<path d="M0 0 C2.9719385 1.12451727 5.33440687 2.22293791 8 4 C6.375 4.6875 6.375 4.6875 4 5 C0.75 3.5625 0.75 3.5625 -2 2 C-1.34 1.34 -0.68 0.68 0 0 Z " fill="#24180D" transform="translate(362,379)"/>
<path d="M0 0 C5.94 1.485 5.94 1.485 12 3 C11.67 3.66 11.34 4.32 11 5 C3.375 3.375 3.375 3.375 0 0 Z " fill="#B67E11" transform="translate(349,658)"/>
<path d="M0 0 C4.20626034 1.50223584 5.73900021 4.28550034 8 8 C7.67 8.66 7.34 9.32 7 10 C5.83043409 8.52312468 4.66441854 7.04343707 3.5 5.5625 C2.8503125 4.73878906 2.200625 3.91507813 1.53125 3.06640625 C0 1 0 1 0 0 Z " fill="#0D090D" transform="translate(384,625)"/>
<path d="M0 0 C1.48199902 0.44909061 2.96055236 0.90956564 4.4375 1.375 C5.26121094 1.63023437 6.08492188 1.88546875 6.93359375 2.1484375 C9 3 9 3 10 5 C5.2482602 4.56802365 3.07999946 3.67230705 0 0 Z " fill="#0C080E" transform="translate(350,487)"/>
<path d="M0 0 C-2.67478244 1.6627026 -4.9995144 2.99983813 -8 4 C-5.97675095 -0.48005146 -4.79569304 -1.43870791 0 0 Z " fill="#AE7A12" transform="translate(505,213)"/>
<path d="M0 0 C3.36720387 1.39332574 4.9859524 2.9789286 7 6 C6.01 6 5.02 6 4 6 C4 5.34 4 4.68 4 4 C2.68 3.34 1.36 2.68 0 2 C0 1.34 0 0.68 0 0 Z " fill="#956910" transform="translate(570,533)"/>
<path d="M0 0 C3.36720387 1.39332574 4.9859524 2.9789286 7 6 C6.01 6.495 6.01 6.495 5 7 C5 6.34 5 5.68 5 5 C4.360625 4.731875 3.72125 4.46375 3.0625 4.1875 C1 3 1 3 0 0 Z " fill="#22170E" transform="translate(579,396)"/>
</svg>
