<?xml version="1.0" encoding="UTF-8" standalone="yes"?>
<svg width="1024" height="1024" version="1.2" baseProfile="tiny-ps" xmlns="http://www.w3.org/2000/svg">
  <title>bimi-svg-tiny-12-ps</title>
  <path fill="#17100D" d="M0 0h1024v1024H0V0Z"/>
  <path fill="#A47411" d="M525.5 212c8.084 4.762 12.677 11.538 15.188 20.438 1.085 8.901-.336 13.299-5.688 20.562a153.322 153.322 0 0 1-6.266 6.895c-3.292 3.996-4.14 7.83-3.984 12.988.76 6.443 3.216 10.978 8.25 15.117l1.645 1.379c9.162 6.77 22.868 4.787 33.73 4.824l1.987.009c3.465.015 6.93.024 10.394.028 3.533.006 7.066.03 10.598.058 2.761.019 5.522.024 8.284.026 1.923.004 3.846.023 5.77.042 10.002-.026 21.764-.384 29.592-7.366 1.809-2.947 2.273-5.185 2.25-8.625l.016-2.352c-.087-2.25-.087-2.25-2.266-4.023-2.14-.318-2.14-.318-4.5-.25l-2.406-.016c-2.313.077-2.313.077-4.094 2.266a73.938 73.938 0 0 0-.813 4.875c-.667 3.582-1.007 4.914-3.437 7.75-3.253 1.627-5.16 1.921-8.75 1.375-1.875-1-1.875-1-3-3-.882-4.489-.69-6.71 1.477-10.758 4.761-6.962 10.019-11.49 17.523-15.242 6.482-.89 11.646-.92 17 3.125 4.812 4.307 8.627 8.807 9.238 15.477.28 11.385-3.594 19.565-11.363 27.898-19.211 18.556-50.996 20.008-76.125 21-10.635.44-22.45 1.057-30.75 8.5-4.758 5.977-5.195 10.678-5.188 18.125l.003 2.623c.085 9.726.721 19.42 1.337 29.125.508 8.066.957 16.13 1.285 24.205l.107 2.618.109 2.655c.79 19.325 1.945 38.608 3.347 57.899l.254 3.583c.24 3.374.491 6.747.746 10.12l.215 3.031c.434 5.559 1.295 10.643 2.785 16.016l.36 2.434c.826 4.239 2.144 6.171 5.562 8.89 3.594 2.393 7.33 4.537 11.078 6.676 12.758 7.574 23.713 16.254 30 30v5H437c-1-4-1-4 .555-7.137.755-1.195 1.53-2.378 2.32-3.55l1.27-1.897c7.732-11.259 17.288-17.486 28.894-24.4 8.766-4.786 8.766-4.786 14.336-12.641l.898-2.29c1.1-3.157 1.86-5.785 1.973-9.12l.1-2.46c.059-1.653.116-3.306.172-4.96.23-5.621.76-11.174 1.42-16.76 1.291-11.068 1.958-22.165 2.625-33.285.13-2.136.262-4.273.394-6.41.733-12.07 1.4-24.139 1.752-36.229.134-4.496.371-8.944.791-13.423.634-7.282.793-14.552.85-21.857.017-1.561.044-3.122.082-4.683.521-11.368.521-11.368-4.022-21.486-10.395-10.41-25.458-10.874-39.285-10.912-26.473.073-58 3.15-78.016 22.21-3.563 3.867-5.921 7.274-6.254 12.614.306 4.993 1.464 8.107 5.145 11.676 2.763 1.381 4.947 1.19 8 1 2.348-1.932 2.348-1.932 2.375-5.375.625-3.625.625-3.625 2.313-6.063 3.05-2.06 4.698-2.164 8.312-1.562 2.375 1.438 2.375 1.438 4 4 .86 4.624.48 8.04-1.625 12.25-4.053 4.692-7.763 8.449-14.23 8.988-7.11.159-12.224-.168-18.145-4.238l-2.688-1.75c-6.264-6.095-8.586-12.556-8.75-21.188-.06-12.307 5.093-20.677 13.547-29.46C379.924 315.168 397.255 309.369 415 305l2.19-.57c13.365-3.433 26.773-4.181 40.501-4.747 18.527-.535 18.527-.535 34.13-9.542 1.53-1.985 2.866-4.008 4.179-6.141l1.25-1.719c3.327-4.898 3.745-9.591 2.75-15.281-1.92-5.132-4.975-9.095-8.625-13.125-5.562-6.18-6.958-11.73-6.723-19.945.514-4.327 1.882-7.377 4.348-10.93l1.25-1.832c8.627-11.249 22.037-15.07 35.25-9.168Z"/>
  <path fill="#A97712" d="M566 364h128c-2.033 16.262-9.303 30.451-22 41-15.564 11.445-33.899 16.207-53.077 13.732-14.59-2.588-26.644-10.306-36.923-20.732l-1.957-1.926c-5.046-5.31-8.08-11.423-11.043-18.074l-1.105-2.3C567 373 567 373 566 364Z"/>
  <path fill="#A27211" d="M321 442h124c-1.312 11.805-4.957 20.528-12 30l-2.188 3.063C421.848 485.406 406.517 493.226 393 495c-10.63.647-20.845.49-31-3l-2.563-.809c-7.047-2.477-12.61-6.594-18.437-11.191l-2.004-1.5c-9.512-7.49-14.254-18.274-17.996-29.5v-7Z"/>
  <path fill="#18100E" d="M399 375c2.23 2.057 3.635 3.92 4.942 6.65l1.064 2.2 1.127 2.377 1.2 2.488c1.27 2.634 2.532 5.271 3.792 7.91 1.644 3.432 3.293 6.861 4.945 10.29l1.23 2.555a388.087 388.087 0 0 0 9.914 19.083c1.91 3.504 3.112 6.529 3.786 10.447-9.712.913-19.363 1.148-29.11 1.133a4728.481 4728.481 0 0 1-13.87-.002c-4.003-.006-8.008-.003-12.013.003-3.09.004-6.18.002-9.27 0-1.478 0-2.957 0-4.435.002a1699.6 1699.6 0 0 1-6.153-.007l-3.535-.002C350 440 350 440 349 439a153.02 153.02 0 0 0-6.563-.063l-3.628.028L336 439c.66-4.41 2.274-8.227 4.098-12.258l.94-2.112c.662-1.487 1.327-2.973 1.993-4.457 1.721-3.835 3.426-7.676 5.133-11.517l1.014-2.277c3.735-8.407 7.311-16.877 10.822-25.379l3.39.996c4.831 1.208 9.408 1.195 14.36 1.067 1.661-.035 3.323-.065 4.984-.09l2.195-.055c2.2.087 3.996.338 6.071 1.082 1.484 2.504 1.484 2.504 2.75 5.563l1.297 3.066L396 395l-.621-1.863L392 383c1.434-2.043 1.434-2.043 3.438-4.188l1.996-2.167L399 375Z"/>
  <path fill="#18100D" d="m648 296 1 2 3 1c1.02 1.638 1.02 1.638 1.953 3.828l1.106 2.562 1.191 2.86 1.265 2.978c1.512 3.583 3 7.177 4.485 10.772l.94 2.271a3634.73 3634.73 0 0 1 6.155 14.958c.687 1.681 1.375 3.361 2.064 5.04.976 2.382 1.945 4.767 2.911 7.153l.898 2.185c1.19 2.954 2.032 5.176 2.032 8.393-12.39 1.32-24.805 1.196-37.25 1.188l-3.4.002c-18.85-.002-37.565-.636-56.35-2.19a566.733 566.733 0 0 1 11.371-28.79l.992-2.323.884-2.056c.652-1.585 1.211-3.206 1.753-4.831l2.902-.445c17.576-2.883 36.474-8.017 48.098-22.555a68.868 68.868 0 0 0 2-4Z"/>
  <path fill="#A67512" d="M538 732h16c4.275 15.608 8.367 31.23 12 47 4.247-12.715 8.023-25.449 11.133-38.492l.703-2.934.61-2.606C579 733 579 733 580 732a153.02 153.02 0 0 1 6.563-.063l3.628.028L593 732c3.243 11.14 6.411 22.277 9.14 33.555a156.947 156.947 0 0 0 1.97 7.14C605 776 605 776 605 780h2l.297-2.045c1.276-8.231 3.121-16.246 5.162-24.312.547-2.166 1.083-4.334 1.62-6.502.347-1.391.696-2.782 1.046-4.172l.945-3.768C617 736 617 736 619 732h16l-1.313 4.75a317.286 317.286 0 0 0-2.937 11.563c-1.438 5.842-3.27 11.53-5.125 17.25-4.196 12.983-8.187 26.088-10.266 39.601C615 807 615 807 614 808c-2.353.073-4.708.084-7.063.063l-3.91-.028L600 808a200.868 200.868 0 0 1-5.563-16.438l-.661-2.264c-1.26-4.364-2.403-8.72-3.307-13.173-.8-3.623-1.857-7.177-2.883-10.742C587 763 587 763 587 760h-2l-.684 3.875c-1.471 7.354-3.603 14.524-5.684 21.723a9694.131 9694.131 0 0 1-3.417 11.902l-.628 2.194c-1.47 5.074-1.47 5.074-2.587 7.306h-15l-1.262-5.063a3839.6 3839.6 0 0 0-5.55-21.937l-.524-2.044c-2.581-10.037-5.358-19.993-8.437-29.89C538 737.551 538 737.551 538 732Z"/>
  <path fill="#AA7812" d="M211 620c42.667 0 42.667 0 50 6 5.247 5.491 8.103 10.686 8.5 18.313-.218 6.912-2.566 12.65-7.39 17.644-1.64 1.424-3.368 2.745-5.11 4.043.516 5.216 3.197 9.072 5.875 13.438C271 692.842 271 692.842 271 696h-18a4744.375 4744.375 0 0 1-5.554-10.571c-.63-1.2-1.26-2.399-1.892-3.597a1719.65 1719.65 0 0 1-2.71-5.168l-1.65-3.142C240 671 240 671 240 669h-13v27h-16v-76Z"/>
  <path fill="#A97712" d="M869 620c42.397 0 42.397 0 51 7 5.211 5.647 7.537 11.888 7.305 19.57-1.015 8.09-4.382 13.25-10.696 18.25-.53.39-1.062.779-1.609 1.18.672 3.543 2.13 6.214 3.941 9.316l1.768 3.065c1.238 2.126 2.478 4.25 3.719 6.375l1.763 3.06 1.632 2.796C929 693 929 693 929 696h-18l-13-26h-12l-1 26h-16v-76Z"/>
  <path fill="#A77512" d="M490 732h17c7.822 19.377 15.632 38.757 23 58.313l.784 2.065c.723 1.91 1.439 3.822 2.154 5.735l1.214 3.244C535 804 535 804 535 807h-17l-5-13-30-1-3 10-2 4h-16c1.125-6.75 1.125-6.75 2.332-9.865l.813-2.122.882-2.251.924-2.395c.99-2.562 1.988-5.12 2.986-7.68l2.048-5.284a2785.622 2785.622 0 0 1 15.108-38.16c.975-2.411 1.94-4.827 2.907-7.243Z"/>
  <path fill="#A67512" d="M98 620h16v30h30v-30h16l1 76h-17v-30h-31v29H98v-75ZM496 620h16v30h31v-30h16l-1 75h-15v-29h-31v30h-16v-76Z"/>
  <path fill="#AB7912" d="M798 620h52v14h-36v16h30v14l-29 1-1 16h36v15h-52v-76Z"/>
  <path fill="#AA7812" d="M579 620h17l.06 4.786c.076 5.861.165 11.722.257 17.583.039 2.537.074 5.073.105 7.61.046 3.646.104 7.293.164 10.939l.035 3.435.06 3.214.04 2.82c.31 2.896.953 5.022 2.279 7.613 5.659 3.491 11.46 3.743 18 3 3.953-1.303 5.822-2.406 8-6 .99-2.969 1.153-5.011 1.205-8.114l.06-3.154.051-3.4.063-3.485c.066-3.678.125-7.356.183-11.034l.131-7.475c.108-6.113.209-12.225.307-18.338h16a3731.47 3731.47 0 0 1-.208 23.431c-.03 2.655-.049 5.31-.063 7.964-.022 3.826-.068 7.65-.12 11.476l-.003 3.571c-.167 9.498-2.342 16.94-8.829 24.054-8.388 7.098-19.375 7.234-29.777 6.504-8.502-1.751-14.94-5.86-20.309-12.656-5.13-7.968-4.979-17.9-4.886-27.04l.008-3.252c.011-3.393.036-6.785.062-10.177.01-2.315.02-4.63.027-6.945.022-5.644.057-11.287.098-16.93ZM465 623c5.7 3.308 9.72 7.285 13 13-.145 2.066-.145 2.066-1 4-3.144 2.446-6.66 3.904-10.625 4.188-2.551-1.276-3.482-2.372-5.25-4.563-3.495-4.32-6.907-6.204-12.512-6.938-6.045-.296-10.696.717-15.613 4.313-5.045 4.622-8.531 9.863-9.316 16.793-.335 8.507 1.561 14.81 6.691 21.582 4.335 4.335 8.323 5.988 14.487 6.093l2.075-.03 2.15-.023c5.561-.177 8.717-.791 12.913-4.415 1.57-1.945 2.757-3.813 4-6 4.973.497 8.638 1.553 13 4-.903 6.832-5.553 10.681-10.375 15.25-7.25 4.833-13.764 6.476-22.438 6.375l-2.93-.021c-8.056-.245-13.64-1.81-20.257-6.604l-2.059-1.383c-7.67-5.774-12.323-15.3-13.941-24.617-1.166-13.133 1.528-22.874 10-33 12.645-13.74 31.402-16.098 48-8Z"/>
  <path fill="#A87612" d="M377.563 621.25c5.936 3.469 9.803 6.829 13.437 12.75-1.072 3.454-2.097 4.052-5.375 5.813-4.833 1.583-4.833 1.583-7.625.187a210.028 210.028 0 0 1-5-4c-4.266-2.51-8.155-2.68-13-2-3.228 1.33-3.228 1.33-5 4-.33 3.6-.33 3.6 1 7 4.065 3.167 8.388 3.896 13.313 4.875 9.597 2.097 15.786 5.078 21.687 13.125 1.516 3.032 1.21 5.88 1.25 9.25l.078 3.953c-.508 5.875-2.638 9.675-7.078 13.485-8.42 6.857-15.512 7.137-26.25 6.312-8.084-1.408-14.303-5.763-19.5-12-1.65-3.3-1.847-5.361-1.5-9 4.128-2.359 7.234-4.014 12-3 1.439 1.65 2.553 3.396 3.727 5.242 1.992 2.75 4.101 3.68 7.273 4.758 5.234.56 8.542-.2 13-3 2.324-2.884 2.324-2.884 2-6.5-.623-3.672-.623-3.672-3.605-5.102-3.547-1.46-6.975-2.397-10.707-3.273-9.482-2.382-16.574-5.313-21.766-13.91-2.256-5.421-1.611-12.22.265-17.653 8.715-12.32 23.05-18.292 37.375-11.312Z"/>
  <path fill="#A67512" d="M398 732h16l1 60 35 1v15h-52v-76Z"/>
  <path fill="#A77612" d="M664 620h16v61h36v15h-52v-76Z"/>
  <path fill="#AC7912" d="M732 620h15v61h36v15h-51v-76Z"/>
  <path fill="#18100D" d="M519.188 299c4.916 3.496 9.127 6.77 10.43 12.91.253 5.896-.45 10.667-4.009 15.465-4.001 4.04-8.469 5.808-14.109 6.188-5.103-.265-8.708-2.216-12.5-5.563-4.342-5.21-4.783-10.112-4.59-16.828.941-5.06 3.587-8.072 7.59-11.172 5.27-3.244 11.44-2.803 17.188-1Z"/>
  <path fill="#A57412" d="M399 375c2.23 2.057 3.635 3.92 4.942 6.65l1.064 2.2 1.127 2.377 1.2 2.488c1.27 2.634 2.532 5.271 3.792 7.91 1.644 3.432 3.293 6.861 4.945 10.29l1.23 2.555a388.087 388.087 0 0 0 9.914 19.083c1.983 3.637 2.956 6.298 3.786 10.447h-12c-6.85-12.423-12.953-25.171-19-38l-1.271-2.692c-2.25-4.766-4.493-9.535-6.729-14.308.978-1.313 1.958-2.626 2.938-3.938l1.652-2.214C398 376 398 376 399 375Z"/>
  <path fill="#A97712" d="M650 298c3.375 3.099 4.798 6.732 6.512 10.902l.999 2.382c1.066 2.548 2.122 5.1 3.177 7.654l2.173 5.218c1.75 4.203 3.49 8.41 5.223 12.621.814 1.975 1.63 3.95 2.446 5.924 1.165 2.826 2.321 5.654 3.47 8.486l.968 2.365c1.187 2.974 2.032 5.215 2.032 8.448h-12c-4.196-9.829-7.943-19.783-11.625-29.813-.862-2.344-1.724-4.688-2.588-7.031a1785.09 1785.09 0 0 1-1.593-4.334c-1.207-3.274-2.47-6.495-3.88-9.688C644 308 644 308 644 305.937c1.567-3.035 3.736-5.383 6-7.937Z"/>
  <path fill="#AA7812" d="M360 381c1.484.423 2.962.864 4.438 1.313l2.496.738L369 384c1.206 3.619.718 4.356-.707 7.791l-1.203 2.943-1.332 3.172-1.343 3.262a2819.37 2819.37 0 0 1-4.29 10.332c-1.425 3.443-2.847 6.888-4.27 10.332-.886 2.146-1.775 4.29-2.667 6.434l-1.223 2.943-1.079 2.59A90.61 90.61 0 0 0 349 439h-13c.896-4.48 2.238-8.148 4.098-12.258l.94-2.112c.662-1.487 1.327-2.973 1.993-4.457 1.721-3.835 3.426-7.676 5.133-11.517l1.014-2.277c3.735-8.407 7.311-16.877 10.822-25.379Z"/>
  <path fill="#160F0E" d="m227 633 9.188-.25 2.867-.11c4.16-.055 6.379.01 9.996 2.25 3.613 3.91 3.219 7.261 3.172 12.403-.271 3.295-1.005 5.242-3.223 7.707-2.824.941-4.53 1.117-7.45 1.098l-2.314-.008-2.923-.028L227 656v-23Z"/>
  <path fill="#170F0D" d="m894.188 632.688 2.29-.088c5.316-.06 8.31.869 12.522 4.4 1.968 3.935 1.464 8.71 1 13-1.801 3.002-2.903 4.452-6 6-1.448.083-2.9.107-4.352.098l-2.578-.01-2.695-.025-2.719-.014c-2.219-.012-4.437-.028-6.656-.049a3036.86 3036.86 0 0 1-.063-10.938l-.025-3.154-.01-2.998-.016-2.777c.264-4.95 5.452-3.397 9.302-3.446Z"/>
  <path fill="#AA7712" d="M606 324c-2.69 8.289-5.76 16.413-8.86 24.557l-1.18 3.119-1.068 2.81c-1.014 2.73-1.014 2.73-1.892 6.514h-13c3.24-8.898 6.644-17.707 10.313-26.438l1.058-2.528.992-2.343.884-2.087C594 326 594 326 595 325c3.738-.635 7.202-1 11-1Z"/>
  <path fill="#160F0D" d="M498 751c2.297 3.445 3.595 7.014 5 10.875l1.563 4.242.742 2.034a106.255 106.255 0 0 0 1.882 4.607C508 775 508 775 508 779h-20c.706-4.238 1.324-7.272 2.813-11.145l1.07-2.798 1.117-2.87 1.117-2.927c2.741-7.118 2.741-7.118 3.883-8.26Z"/>
  <path fill="#A87711" d="M188 679c5.506 3.263 5.506 3.263 6.55 6.938.26 3.912-.342 5.75-2.55 9.062-3.312 2.208-5.15 2.814-9.063 2.547-3.725-1.052-5.063-3.326-6.937-6.547-.688-3.563-.688-3.563 0-7 3.66-4.095 6.474-6.151 12-5Z"/>
  <path fill="#A71" d="M299 679c2.7 1.8 4.542 3.084 6 6 .43 3.872.317 5.525-1.875 8.813-2.704 2.783-3.548 3.122-7.438 3.562C292 697 292 697 289.063 695c-2.28-3.318-2.875-5.11-2.613-9.063 1.656-5.825 7.035-7.993 12.551-6.937Z"/>
  <path fill="#C58911" d="M543 620h16l-1 75h-15v-6h1v5h13v-72h-13l1 3c.098 2.74.14 5.448.125 8.188l.012 2.212c-.009 4.949-.438 9.701-1.137 14.6h-1v-30Z"/>
  <path fill="#B88213" d="M496 620h16v27l-2 1v-26h-12v61h-1c-.697-21.01-1.151-41.977-1-63Z"/>
  <path fill="#04020C" d="M601.418 361.473c14.393.801 28.798.599 43.207.527 34.057-.17 34.057-.17 50.375 1v1c-12.98.023-25.961.041-38.941.052-6.03.005-12.061.012-18.091.023-5.842.011-11.684.017-17.526.02-2.206.002-4.412.005-6.618.01-15.964.039-31.876-.381-47.824-1.105v-1c3.895-.204 7.791-.385 11.688-.563l3.224-.17c6.888-.3 13.628-.186 20.506.206Z"/>
  <path fill="#BD8513" d="M664 620h16l-1 61h-1v-59h-13l.494 4.365c.526 5.283.635 10.494.604 15.8l-.005 2.781a3460.34 3460.34 0 0 1-.03 8.679c-.006 1.978-.01 3.956-.014 5.934-.011 4.813-.028 9.627-.049 14.441h-1c-.59-18.005-1.143-35.983-1-54Z"/>
  <path fill="#03010D" d="M431 435c2 2 2 2 2 5h13v1H320v-1l2.773-.148 3.602-.227c1.183-.07 2.367-.14 3.586-.21 3.145-.117 3.145-.117 5.039-2.415v3l96-1v-4Z"/>
  <path fill="#C38913" d="m869 620 17.375-.125 5.482-.055c1.43-.006 2.86-.011 4.291-.015l2.26-.031c1.865-.001 3.73.103 5.592.226l2 2h-35v55h-1l-1-57Z"/>
  <path fill="#B78012" d="M543 620h16l-1 4-1-2h-13l1 3c.098 2.74.14 5.448.125 8.188l.012 2.212c-.009 4.949-.438 9.701-1.137 14.6h-1v-30Z"/>
  <path fill="#0C070C" d="m593.813 323.938 3.519.027L600 324v1l-2.3.063c-3.032.716-3.032.716-4.43 4.062-.506 1.284-.99 2.576-1.457 3.875-2.599 6.893-2.599 6.893-4.813 8 3.075-10.558 3.075-10.558 5-15h-10v-1c3.998-.956 7.708-1.104 11.813-1.063Z"/>
  <path fill="#B47F11" d="M258 625c5.033 2.322 7.207 5.471 9.75 10.375 1.306 3.788 1.493 6.65 1.25 10.625h-2l-.445-2.563c-1.484-7.505-3.3-12.808-8.555-18.437Z"/>
  <path fill="#0C080D" d="M609 762h1c-.483 6.205-1.333 12-3 18h-2l-1-8 2 1 3-11Z"/>
  <path fill="#9D6D12" d="M253 693h17l1 3h-18v-3Z"/>
  <path fill="#432E0D" d="m445 298 25 1v1l-31 1v-1h6v-2Z"/>
  <path fill="#AF7B12" d="M325 457c2.767 2.52 4.673 5.357 6.688 8.5l1.886 2.906C335 471 335 471 335 474c-4.512-3.997-7.565-8.467-10-14v-3Z"/>
  <path fill="#B47E11" d="M377 653c5.79.78 9.227 3.662 13 8 1 3.438 1 3.438 1 6l-1.688-2.188c-3.708-4.51-7.237-7.912-12.312-10.812v-1Z"/>
  <path fill="#0E090E" d="m333 473 16 12-2 2a3355.332 3355.332 0 0 1-5.313-4.313l-2.988-2.425c-4.207-3.526-4.207-3.526-5.699-5.262v-2Z"/>
  <path fill="#22160C" d="M398 365h1c.25 1.601.474 3.206.688 4.813l.386 2.707C400 375 400 375 398.656 376.719c-3.748 2.9-3.748 2.9-5.656 4.281l-2-1 2.375-2.438c3.196-3.775 3.91-7.764 4.625-12.562Z"/>
  <path fill="#0D090E" d="M571 532c3.127 1.385 5.24 2.995 7.625 5.438l1.79 1.808C582 541 582 541 584 544c-.375 2.188-.375 2.188-1 4l-1.355-1.977C578.28 541.16 574.878 536.465 571 532Z"/>
  <path fill="#BA8312" d="m566 364 26 1v1h-24l-1 2-1-4Z"/>
  <path fill="#B67F12" d="m583 680 13 13c-4.766-.892-7.78-3.471-11-7-1.438-3.375-1.438-3.375-2-6Z"/>
  <path fill="#B47E11" d="M456 621c6.674.284 10.71 3.078 16 7l-2 2-1.938-1.75c-3.782-2.78-7.737-4.479-12.062-6.25v-1Z"/>
  <path fill="#37250D" d="M500 267h1c.562 10.725.562 10.725-3 15h-1c-.125-2.875-.125-2.875 0-6l2-2c.4-2.323.74-4.657 1-7Z"/>
  <path fill="#B37D12" d="M431 437v2h-12v-2c1.624-.195 3.25-.38 4.875-.563l2.742-.316C429 436 429 436 431 437Z"/>
  <path fill="#0B070D" d="M917 624c4.3 1.592 6.397 4.355 9 8l-1 3a2166.778 2166.778 0 0 1-3.438-4.375l-1.933-2.46C918 626 918 626 917 624Z"/>
  <path fill="#3C290D" d="m537 489 3 2-1 12h-1c-.953-4.763-1.083-9.167-1-14Z"/>
  <path fill="#24180D" d="M362 379c2.972 1.125 5.334 2.223 8 4-1.625.688-1.625.688-4 1-3.25-1.438-3.25-1.438-6-3l2-2Z"/>
  <path fill="#B67E11" d="m349 658 12 3-1 2c-7.625-1.625-7.625-1.625-11-5Z"/>
  <path fill="#0D090D" d="M384 625c4.206 1.502 5.739 4.286 8 8l-1 2c-1.17-1.477-2.336-2.957-3.5-4.438l-1.969-2.496C384 626 384 626 384 625Z"/>
  <path fill="#0C080E" d="M350 487c1.482.45 2.96.91 4.438 1.375l2.496.773C359 490 359 490 360 492c-4.752-.432-6.92-1.328-10-5Z"/>
  <path fill="#AE7A12" d="M505 213c-2.675 1.663-5 3-8 4 2.023-4.48 3.204-5.439 8-4Z"/>
  <path fill="#956910" d="M570 533c3.367 1.393 4.986 2.979 7 6h-3v-2l-4-2v-2Z"/>
  <path fill="#22170E" d="M579 396c3.367 1.393 4.986 2.979 7 6l-2 1v-2l-1.938-.813C580 399 580 399 579 396Z"/>
</svg>